<?xml version="1.0" encoding="iso-8859-1"?>
<!-- Generator: Adobe Illustrator 19.0.0, SVG Export Plug-In . SVG Version: 6.00 Build 0)  -->
<svg version="1.1" id="Layer_1" xmlns="http://www.w3.org/2000/svg" xmlns:xlink="http://www.w3.org/1999/xlink" x="0px" y="0px"
	 viewBox="0 0 512 512" style="enable-background:new 0 0 512 512;" xml:space="preserve">
<circle style="fill:#FA597D;" cx="256" cy="256" r="256"/>
<path style="fill:#E0365C;" d="M276.523,482.835c-141.384,0-256-114.616-256-256c0-48.361,13.416-93.586,36.72-132.167
	C21.46,138.699,0,194.84,0,256c0,141.384,114.616,256,256,256c93.024,0,174.454-49.621,219.28-123.833
	C428.342,445.923,356.748,482.835,276.523,482.835z"/>
<path style="fill:#C73052;" d="M394.262,243.038c-22.48,0-44.698,1.723-66.566,5.134c-4.54-20.178-10.562-40.011-18.046-59.428
	c14.489-11.189,28.323-23.327,41.421-36.427c27.607-27.607,51.026-58.421,69.999-91.976c-11.093-9.369-22.992-17.811-35.583-25.208
	c-23.934,43.342-55.984,81.601-94.095,112.709c-20.315-39.78-46.662-75.973-78.583-107.894
	c-10.169-10.169-20.779-19.76-31.793-28.782c-16.113,4.929-31.55,11.402-46.138,19.252c51.173,36.933,92.945,86.121,120.956,143.236
	c-59.84,38.435-130.977,60.742-207.226,60.742c-16.058,0-31.885-1-47.432-2.921C0.408,239.549,0,247.726,0,256
	c0,6.379,0.242,12.702,0.7,18.965c15.814,1.755,31.794,2.639,47.908,2.639c57.736,0,113.756-11.313,166.505-33.624
	c20.1-8.501,39.376-18.473,57.78-29.816c4.945,13.936,9.104,28.241,12.432,42.858c-19.558,5.143-38.772,11.689-57.569,19.64
	c-50.939,21.545-96.68,52.384-135.958,91.661c-13.897,13.897-26.716,28.62-38.463,44.08c9.027,11.679,19.034,22.56,29.909,32.512
	c50.688-69.601,124.124-121.625,209.299-145.012c1.545,13.962,2.343,28.145,2.343,42.511c0,60.826-14.198,118.399-39.451,169.579
	c0.189,0,0.376,0.008,0.565,0.008c16.816,0,33.247-1.64,49.156-4.734c21.852-52.266,32.936-107.719,32.936-164.852
	c0-17.372-1.032-34.589-3.072-51.609c19.314-2.999,39.099-4.559,59.241-4.559c39.44,0,77.511,5.972,113.36,17.054
	c2.662-14.244,4.138-28.903,4.335-43.873C473.909,248.54,434.503,243.038,394.262,243.038z"/>
<g>
</g>
<g>
</g>
<g>
</g>
<g>
</g>
<g>
</g>
<g>
</g>
<g>
</g>
<g>
</g>
<g>
</g>
<g>
</g>
<g>
</g>
<g>
</g>
<g>
</g>
<g>
</g>
<g>
</g>
</svg>
