<svg width="20" height="20" viewBox="0 0 20 20" fill="none" xmlns="http://www.w3.org/2000/svg">
<g clip-path="url(#clip0_208_72)">
<path d="M10 0C4.48 0 0 4.48 0 10C0 15.52 4.48 20 10 20C15.52 20 20 15.52 20 10C20 4.48 15.52 0 10 0ZM7.29 15.29L3.7 11.7C3.31 11.31 3.31 10.68 3.7 10.29C4.09 9.9 4.72 9.9 5.11 10.29L8 13.17L14.88 6.29C15.27 5.9 15.9 5.9 16.29 6.29C16.68 6.68 16.68 7.31 16.29 7.7L8.7 15.29C8.32 15.68 7.68 15.68 7.29 15.29Z" fill="#1D894E"/>
</g>
<defs>
<clipPath id="clip0_208_72">
<rect width="20" height="20" fill="white"/>
</clipPath>
</defs>
</svg>
