<svg width="13" height="13" viewBox="0 0 13 13" fill="none" xmlns="http://www.w3.org/2000/svg">
<g clip-path="url(#clip0_1323_65)">
<path d="M4.53711 6.20649C4.34144 5.72645 4.24176 5.21272 4.24371 4.69434C4.24371 3.89085 4.48197 3.10541 4.92836 2.43733C5.37475 1.76926 6.00923 1.24856 6.75156 0.941077C7.49388 0.633596 8.31071 0.553145 9.09876 0.709898C9.88681 0.86665 10.6107 1.25357 11.1788 1.82172C11.747 2.38987 12.1339 3.11374 12.2906 3.90178C12.4474 4.68983 12.3669 5.50666 12.0595 6.24899C11.752 6.99131 11.2313 7.62579 10.5632 8.07218C9.89514 8.51858 9.10969 8.75684 8.30621 8.75684C7.78783 8.75879 7.27409 8.65911 6.79405 8.46344V8.46344L6.04926 9.20823H4.6951V10.5624H3.34093V11.9166H1.08398V9.65962L4.53711 6.20649Z" stroke="white" stroke-linecap="round" stroke-linejoin="round"/>
<path d="M9.4349 4.24284C9.80884 4.24284 10.112 3.9397 10.112 3.56576C10.112 3.19181 9.80884 2.88867 9.4349 2.88867C9.06095 2.88867 8.75781 3.19181 8.75781 3.56576C8.75781 3.9397 9.06095 4.24284 9.4349 4.24284Z" fill="white"/>
</g>
<defs>
<clipPath id="clip0_1323_65">
<rect width="13" height="13" fill="white"/>
</clipPath>
</defs>
</svg>
