<svg width="15" height="15" viewBox="0 0 15 15" fill="none" xmlns="http://www.w3.org/2000/svg">
<g clip-path="url(#clip0_1314_19)">
<path d="M7.0594 10.1468H4.85352V7.94089L11.4712 1.32324L13.677 3.52912L7.0594 10.1468Z" stroke="#2ED47E" stroke-width="1.5" stroke-linecap="round" stroke-linejoin="round"/>
<path d="M9.81641 2.97754L12.0223 5.18342" stroke="#2ED47E" stroke-width="1.5" stroke-linecap="round" stroke-linejoin="round"/>
<path d="M13.1245 7.38971V13.4559C13.1245 13.6021 13.0664 13.7424 12.963 13.8458C12.8596 13.9493 12.7193 14.0074 12.5731 14.0074H1.54366C1.3974 14.0074 1.25713 13.9493 1.15371 13.8458C1.05029 13.7424 0.992188 13.6021 0.992188 13.4559V2.42647C0.992188 2.28021 1.05029 2.13994 1.15371 2.03652C1.25713 1.9331 1.3974 1.875 1.54366 1.875H7.60983" stroke="#2ED47E" stroke-width="1.5" stroke-linecap="round" stroke-linejoin="round"/>
</g>
<defs>
<clipPath id="clip0_1314_19">
<rect width="15" height="15" fill="white"/>
</clipPath>
</defs>
</svg>
