<svg height='100px' width='100px'  xmlns="http://www.w3.org/2000/svg" viewBox="0 0 24 24" fill="none" x="0px" y="0px"><path fill-rule="evenodd" clip-rule="evenodd" d="M5.00073 17.5864C4.61023 17.977 4.61029 18.6101 5.00085 19.0006C5.39141 19.3911 6.02457 19.3911 6.41506 19.0005L12.0003 13.4143L17.586 19C17.9765 19.3905 18.6097 19.3905 19.0002 19C19.3907 18.6095 19.3907 17.9763 19.0002 17.5858L13.4144 12L18.9998 6.41362C19.3902 6.02306 19.3902 5.3899 18.9996 4.99941C18.6091 4.60891 17.9759 4.60897 17.5854 4.99953L12.0001 10.5858L6.41438 5.00001C6.02386 4.60949 5.39069 4.60949 5.00017 5.00001C4.60964 5.39054 4.60964 6.0237 5.00017 6.41423L10.5861 12.0001L5.00073 17.5864Z" fill="black"></path></svg>