<svg width="15" height="15" viewBox="0 0 15 15" fill="none" xmlns="http://www.w3.org/2000/svg">
<g clip-path="url(#clip0_1314_24)">
<path d="M7.5 7.50015V1.00977" stroke="#FFBB34" stroke-width="1.5" stroke-linecap="round" stroke-linejoin="round"/>
<path d="M13.1173 4.25488L1.88086 10.7453" stroke="#FFBB34" stroke-width="1.5" stroke-linecap="round" stroke-linejoin="round"/>
<path d="M1.11801 8.69028C1.04422 8.29798 1.008 7.89955 1.00983 7.50038C1.00898 6.15808 1.42475 4.8486 2.19979 3.75266C2.97482 2.65672 4.07089 1.82834 5.33676 1.38184V6.24962L1.11801 8.69028Z" stroke="#FFBB34" stroke-width="1.5" stroke-linecap="round" stroke-linejoin="round"/>
<path d="M7.5003 1.00977C8.63758 1.00989 9.75486 1.30886 10.7402 1.8767C11.7256 2.44455 12.5445 3.26135 13.1148 4.24528C13.6851 5.22921 13.9869 6.34573 13.9899 7.48301C13.9929 8.62028 13.6971 9.73838 13.1319 10.7253C12.5668 11.7122 11.7523 12.5334 10.7699 13.1064C9.78754 13.6794 8.67185 13.9843 7.53459 13.9904C6.39732 13.9966 5.27841 13.7038 4.28993 13.1414C3.30144 12.579 2.47809 11.7667 1.90234 10.7859" stroke="#FFBB34" stroke-width="1.5" stroke-linecap="round" stroke-linejoin="round"/>
</g>
<defs>
<clipPath id="clip0_1314_24">
<rect width="15" height="15" fill="white"/>
</clipPath>
</defs>
</svg>
