<svg width="18" height="18" viewBox="0 0 18 18" fill="none" xmlns="http://www.w3.org/2000/svg">
<g clip-path="url(#clip0_1370_58)">
<path d="M17.6877 6.60938C17.6095 6.36327 17.4587 6.14654 17.2552 5.98761C17.0516 5.82868 16.8048 5.73496 16.5471 5.71875L11.9065 5.39844L10.1877 1.0625C10.0939 0.823753 9.9305 0.618675 9.71878 0.473816C9.50707 0.328956 9.25674 0.250987 9.00021 0.25V0.25C8.74368 0.250987 8.49336 0.328956 8.28164 0.473816C8.06992 0.618675 7.90656 0.823753 7.81271 1.0625L6.06271 5.42187L1.45334 5.71875C1.19592 5.73601 0.949603 5.83012 0.746253 5.9889C0.542904 6.14768 0.391877 6.36383 0.312711 6.60938C0.231415 6.85869 0.226665 7.12664 0.299074 7.37868C0.371483 7.63072 0.517731 7.85529 0.718961 8.02344L4.26584 11.0234L3.21115 15.1719C3.13818 15.4525 3.15131 15.7486 3.24884 16.0217C3.34637 16.2948 3.52378 16.5322 3.75802 16.7031C3.98539 16.8663 4.25628 16.9579 4.53602 16.9663C4.81577 16.9746 5.09164 16.8993 5.32834 16.75L8.9924 14.4297H9.00802L12.9533 16.9219C13.1557 17.0534 13.3917 17.1239 13.633 17.125C13.8301 17.1235 14.0242 17.0767 14.2004 16.9884C14.3766 16.9002 14.5302 16.7727 14.6494 16.6157C14.7686 16.4588 14.8502 16.2766 14.888 16.0832C14.9258 15.8898 14.9188 15.6903 14.8674 15.5L13.7502 10.9609L17.2815 8.02344C17.4827 7.85529 17.6289 7.63072 17.7013 7.37868C17.7738 7.12664 17.769 6.85869 17.6877 6.60938Z" fill="white"/>
</g>
<defs>
<clipPath id="clip0_1370_58">
<rect width="18" height="18" fill="white"/>
</clipPath>
</defs>
</svg>
